HIERARCHY
ROOT Hips
{
	OFFSET 0.000000 0.000000 0.000000
	CHANNELS 6 Xposition Yposition Zposition Xrotation Yrotation Zrotation
	JOINT LeftUpLeg_virtual
	{
		OFFSET 0.000000 0.000000 0.000000
		CHANNELS 3 Xrotation Yrotation Zrotation
		JOINT LeftUpLeg
		{
			OFFSET 11.394100 -6.187798 -0.413800
			CHANNELS 3 Xrotation Yrotation Zrotation
			JOINT LeftLeg
			{
				OFFSET 0.430247 -32.302673 3.732800
				CHANNELS 3 Xrotation Yrotation Zrotation
				JOINT LeftFoot
				{
					OFFSET -0.430247 -48.264931 -6.423300
					CHANNELS 3 Xrotation Yrotation Zrotation
					JOINT LeftToeBase
					{
						OFFSET 4.230900 -16.068199 23.438400
						CHANNELS 3 Xrotation Yrotation Zrotation
						JOINT LeftToe_End
						{
							OFFSET 4.510700 0.695400 19.974600
							CHANNELS 3 Xrotation Yrotation Zrotation
							End Site
							{
								OFFSET 0 0 0
							}
						}
					}
				}
			}
		}
	}
	JOINT RightUpLeg_virtual
	{
		OFFSET 0.000000 0.000000 0.000000
		CHANNELS 3 Xrotation Yrotation Zrotation
		JOINT RightUpLeg
		{
			OFFSET -11.333700 -6.187798 -0.413800
			CHANNELS 3 Xrotation Yrotation Zrotation
			JOINT RightLeg
			{
				OFFSET -0.430392 -32.302628 3.733000
				CHANNELS 3 Xrotation Yrotation Zrotation
				JOINT RightFoot
				{
					OFFSET 0.430392 -48.264973 -6.423500
					CHANNELS 3 Xrotation Yrotation Zrotation
					JOINT RightToeBase
					{
						OFFSET -4.230900 -16.068199 23.438400
						CHANNELS 3 Xrotation Yrotation Zrotation
						JOINT RightToe_End
						{
							OFFSET -4.510700 0.695400 19.974600
							CHANNELS 3 Xrotation Yrotation Zrotation
							End Site
							{
								OFFSET 0 0 0
							}
						}
					}
				}
			}
		}
	}
	JOINT Spine_virtual
	{
		OFFSET 0.000000 0.000000 0.000000
		CHANNELS 3 Xrotation Yrotation Zrotation
		JOINT Spine
		{
			OFFSET -0.002400 12.777504 0.315300
			CHANNELS 3 Xrotation Yrotation Zrotation
			JOINT Spine1
			{
				OFFSET -0.002067 5.816869 0.032633
				CHANNELS 3 Xrotation Yrotation Zrotation
				JOINT Spine1_split
				{
					OFFSET -0.002067 5.816869 0.032633
					CHANNELS 3 Xrotation Yrotation Zrotation
					JOINT Spine2
					{
						OFFSET -0.002067 5.816869 0.032633
						CHANNELS 3 Xrotation Yrotation Zrotation
						JOINT Neck_virtual
						{
							OFFSET 0.000000 0.000000 0.000000
							CHANNELS 3 Xrotation Yrotation Zrotation
							JOINT Neck
							{
								OFFSET -0.003700 21.199493 -0.826900
								CHANNELS 3 Xrotation Yrotation Zrotation
								JOINT Head
								{
									OFFSET 0.000000 20.442200 4.834800
									CHANNELS 3 Xrotation Yrotation Zrotation
									JOINT HeadTop_End
									{
										OFFSET 0.000000 34.668396 4.968400
										CHANNELS 3 Xrotation Yrotation Zrotation
										End Site
										{
											OFFSET 0 0 0
										}
									}
								}
							}
						}
						JOINT LeftShoulder_virtual
						{
							OFFSET 0.000000 0.000000 0.000000
							CHANNELS 3 Xrotation Yrotation Zrotation
							JOINT LeftShoulder
							{
								OFFSET 3.288150 8.794197 -1.372250
								CHANNELS 3 Xrotation Yrotation Zrotation
								JOINT LeftShoulder_split
								{
									OFFSET 3.288150 8.794197 -1.372250
									CHANNELS 3 Xrotation Yrotation Zrotation
									JOINT LeftArm
									{
										OFFSET 11.953299 -2.279007 -0.146200
										CHANNELS 3 Xrotation Yrotation Zrotation
										JOINT LeftForeArm
										{
											OFFSET 18.448900 0.000000 0.000000
											CHANNELS 3 Xrotation Yrotation Zrotation
											JOINT LeftHand
											{
												OFFSET 29.527798 0.000000 0.000000
												CHANNELS 3 Xrotation Yrotation Zrotation
												End Site
												{
													OFFSET 0 0 0
												}
											}
										}
									}
								}
							}
						}
						JOINT RightShoulder_virtual
						{
							OFFSET 0.000000 0.000000 0.000000
							CHANNELS 3 Xrotation Yrotation Zrotation
							JOINT RightShoulder
							{
								OFFSET -3.249400 8.794197 -1.372250
								CHANNELS 3 Xrotation Yrotation Zrotation
								JOINT RightShoulder_split
								{
									OFFSET -3.249400 8.794197 -1.372250
									CHANNELS 3 Xrotation Yrotation Zrotation
									JOINT RightArm
									{
										OFFSET -11.953299 -2.279007 -0.146200
										CHANNELS 3 Xrotation Yrotation Zrotation
										JOINT RightForeArm
										{
											OFFSET -18.448900 0.000000 0.000000
											CHANNELS 3 Xrotation Yrotation Zrotation
											JOINT RightHand
											{
												OFFSET -29.527802 0.000000 0.000000
												CHANNELS 3 Xrotation Yrotation Zrotation
												End Site
												{
													OFFSET 0 0 0
												}
											}
										}
									}
								}
							}
						}
					}
				}
			}
		}
	}
}
MOTION
Frames: 6
Frame Time: 0.03333333
15.286113 40.089695 386.785614 0.000000 0.000000 0.000000 39.818719 -45.175182 81.748144 -66.039644 -7.625376 12.721718 31.819710 -6.900200 6.227763 5.881873 8.577134 -22.650185 3.793461 3.696325 -18.561367 0.000000 0.000000 0.000000 41.471348 -51.092609 88.778252 -124.575192 -1.946269 -27.168737 114.321746 5.717058 -2.198974 73.830008 26.990973 41.810078 10.413247 -2.130100 19.852513 0.000000 0.000000 0.000000 48.296343 -52.582710 87.959524 8.159561 -9.604317 -3.699369 22.367442 -11.313041 -0.024919 -1.065700 2.356317 -0.628849 0.000000 0.000000 0.000000 16.658295 -12.510308 -0.153934 14.051895 3.065432 -6.682862 -7.891716 25.785561 -19.181210 0.000000 0.000000 0.000000 21.191966 -12.243891 1.333494 1.193489 -1.560067 -20.101399 -2.175260 0.198423 1.931917 6.619524 2.526843 -57.007365 29.206674 -15.765506 -4.551115 0.000000 0.000000 0.000000 20.704163 -12.697653 -0.126689 4.101344 22.142104 3.434903 5.876039 8.593376 7.115415 -31.964544 -8.852904 -0.614861 -27.394864 19.047924 4.003329 0.000000 0.000000 0.000000 
15.132409 41.667191 400.147491 0.000000 0.000000 0.000000 39.480365 -44.144541 77.524157 -72.966754 -8.939198 14.130093 34.663504 -7.416438 1.921889 6.501990 8.484010 -26.020666 3.950315 3.728949 -20.281881 0.000000 0.000000 0.000000 39.018105 -49.627721 82.783190 -127.223461 3.978386 -34.406586 114.344928 10.620277 -4.295529 73.773447 33.883711 47.158846 8.938307 -3.311833 19.792684 0.000000 0.000000 0.000000 45.591957 -52.415510 81.886687 9.197487 -8.175083 -3.215988 22.234931 -9.206122 -0.209644 -1.416339 2.267681 -0.432848 0.000000 0.000000 0.000000 16.534659 -10.367081 -0.543877 11.587711 3.210360 -4.899135 -11.299128 25.476684 -15.873477 0.000000 0.000000 0.000000 20.556916 -10.099042 0.716152 1.024812 -1.692186 -20.457755 -1.321619 0.628573 2.451183 10.049993 3.875429 -56.822898 30.757052 -16.051476 -5.134522 0.000000 0.000000 0.000000 20.423734 -10.440741 -0.381913 3.388564 22.247518 4.770710 5.987113 7.668911 7.628273 -34.225945 -11.437092 2.316143 -28.279961 17.376080 2.653287 0.000000 0.000000 0.000000 
14.675498 43.077217 412.934235 0.000000 0.000000 0.000000 37.503196 -43.613842 71.387723 -81.062830 -8.754157 16.553874 40.883597 -7.517674 -2.821120 5.514352 7.585152 -24.948922 3.851862 3.770687 -21.268077 0.000000 0.000000 0.000000 36.105411 -48.816752 74.816185 -126.883085 8.661387 -40.825495 113.655700 14.615987 -5.608316 71.555575 36.687644 52.596705 9.220761 -4.171363 18.053718 0.000000 0.000000 0.000000 40.890686 -51.887960 73.594981 10.223536 -6.264439 -2.835038 21.475966 -6.876049 -0.727032 -1.151128 2.361576 0.167475 0.000000 0.000000 0.000000 16.111706 -8.002046 -1.235119 8.056196 3.353980 -2.975618 -14.872416 24.556456 -12.380287 0.000000 0.000000 0.000000 19.445475 -7.745353 -0.332701 0.828868 -1.645460 -20.606483 0.247527 -0.724797 2.458617 14.049103 5.180715 -54.446710 32.172903 -18.088330 -4.887279 0.000000 0.000000 0.000000 19.709993 -7.861648 -0.988546 2.596313 21.530650 6.531754 6.777032 7.195317 7.146841 -34.024249 -16.594334 10.529895 -28.777322 20.216535 2.772269 0.000000 0.000000 0.000000 
13.827168 44.327843 425.218994 0.000000 0.000000 0.000000 33.772318 -43.418942 63.081633 -90.788357 -7.945253 20.656475 51.941833 -8.758485 -6.922461 6.018854 4.389669 -21.382638 1.204483 4.304927 -20.821004 0.000000 0.000000 0.000000 31.765547 -48.194884 64.500734 -122.408273 9.778600 -46.663313 111.912171 17.165881 -5.281016 66.820847 34.184431 57.840870 12.780516 -4.390857 15.678182 0.000000 0.000000 0.000000 34.696323 -50.471454 63.540847 11.017252 -4.291950 -2.514668 20.161912 -4.814807 -1.390149 -0.685004 2.809636 0.945527 0.000000 0.000000 0.000000 15.453902 -5.892792 -2.033694 3.953477 3.730440 -1.292324 -18.054133 23.804968 -9.203831 0.000000 0.000000 0.000000 18.050242 -5.667410 -1.549182 0.709431 -1.354995 -20.172310 2.322615 -2.982204 2.082335 17.700111 6.577149 -49.366534 33.185188 -21.443415 -3.967767 0.000000 0.000000 0.000000 18.679966 -5.458138 -1.739794 1.903587 20.213188 8.195180 8.208320 7.368627 6.410320 -28.817412 -22.984934 24.246728 -28.991605 27.751718 4.445948 0.000000 0.000000 0.000000 
12.538421 45.630466 437.262848 0.000000 0.000000 0.000000 29.667104 -43.008277 53.374401 -101.493783 -7.620394 25.756425 67.441506 -11.647182 -9.000721 10.603765 -1.142305 -16.865096 -4.671289 5.302869 -18.458721 0.000000 0.000000 0.000000 27.052822 -47.126171 53.036948 -114.049495 6.046665 -51.688659 108.704175 19.097120 -3.921325 60.568321 28.519516 62.705979 16.994233 -4.299720 13.251852 0.000000 0.000000 0.000000 28.929782 -47.811416 53.101876 11.224461 -2.665063 -2.242582 18.422863 -3.423830 -2.008680 0.002189 3.105388 1.292332 0.000000 0.000000 0.000000 14.736464 -4.442455 -2.738395 0.075465 4.556342 -0.036392 -20.476661 23.887098 -6.412776 0.000000 0.000000 0.000000 16.615099 -4.277182 -2.615887 0.669585 -0.875659 -18.698632 4.275838 -4.527757 0.811899 18.911219 8.380792 -41.385930 32.862762 -25.031810 -3.046001 0.000000 0.000000 0.000000 17.384527 -3.796458 -2.450931 1.392147 18.712148 9.335592 9.937316 7.496343 5.583895 -18.382138 -27.680407 42.267840 -29.507210 39.682699 7.910759 0.000000 0.000000 0.000000 
10.793825 47.291317 448.760315 0.000000 0.000000 0.000000 25.805040 -41.955506 42.998773 -110.790791 -7.314674 30.559431 83.138873 -13.729654 -9.080192 17.274459 -6.413193 -9.893109 -12.326450 6.082491 -14.427771 0.000000 0.000000 0.000000 22.507444 -45.331105 41.800679 -102.489311 -2.481832 -54.200905 104.264825 21.148318 -2.360426 54.881769 23.101843 66.893589 18.984302 -4.048595 11.267232 0.000000 0.000000 0.000000 25.252483 -44.057032 43.464308 10.615533 -1.771128 -2.024547 16.473002 -2.934747 -2.518720 0.266466 2.965256 1.209960 0.000000 0.000000 0.000000 14.034927 -3.864797 -3.278364 -3.277220 5.944063 0.773598 -21.860738 24.972874 -3.949825 0.000000 0.000000 0.000000 15.202644 -3.795893 -3.401993 0.732047 -0.471131 -16.315770 5.042546 -4.599329 -0.879418 16.145401 10.483511 -31.163093 30.187752 -27.288894 -2.997820 0.000000 0.000000 0.000000 15.898981 -3.135646 -3.048686 1.083381 17.281999 9.759980 11.359347 7.743214 4.969609 -6.283053 -27.902750 60.128320 -32.431009 55.401157 14.766990 0.000000 0.000000 0.000000 
